<svg xmlns="http://www.w3.org/2000/svg" version="1.1" xmlns:xlink="http://www.w3.org/1999/xlink" xmlns:svgjs="http://svgjs.dev/svgjs" width="2560" height="1440" preserveAspectRatio="none" viewBox="0 0 2560 1440"><g mask="url(&quot;#SvgjsMask1182&quot;)" fill="none"><rect width="2560" height="1440" x="0" y="0" fill="#0e2a47"></rect><path d="M0,1161.819C215.208,1133.268,282.538,841.092,467.685,727.732C659.48,610.301,940.929,667.461,1086.872,496.358C1239.658,317.232,1278.52,53.989,1240.545,-178.363C1202.862,-408.928,1041.35,-593.486,880.983,-763.376C726.147,-927.407,555.371,-1093.738,334.279,-1138.448C119.837,-1181.813,-81.086,-1051.678,-293.91,-1000.965C-520.946,-946.866,-815.26,-1014.799,-958.369,-830.431C-1102.718,-644.466,-959.284,-373.889,-963.361,-138.51C-966.817,61.017,-1055.852,262.997,-980.511,447.785C-904.097,635.204,-718.481,744.247,-554.869,863.394C-381.594,989.577,-212.489,1190.01,0,1161.819" fill="#0b2239"></path><path d="M2560 2283.247C2727.907 2317.1639999999998 2931.425 2330.793 3059.048 2216.533 3187.625 2101.418 3118.639 1884.68 3183.7110000000002 1724.839 3244.7219999999998 1574.974 3434.929 1477.062 3425.858 1315.508 3416.819 1154.516 3246.802 1058.22 3139.523 937.8399999999999 3033.9 819.319 2949.897 673.463 2802.079 615.554 2648.75 555.486 2465.134 541.952 2318.059 616.024 2176.349 687.394 2161.605 885.708 2047.258 995.707 1915.138 1122.8029999999999 1666.027 1129.958 1604.346 1302.598 1544.062 1471.327 1647.684 1664.943 1757.596 1806.446 1857.342 1934.8600000000001 2035.848 1955.022 2175.634 2038.085 2308.976 2117.319 2407.964 2252.536 2560 2283.247" fill="#113255"></path></g><defs><mask id="SvgjsMask1182"><rect width="2560" height="1440" fill="#ffffff"></rect></mask></defs></svg>