<svg xmlns="http://www.w3.org/2000/svg" version="1.1" xmlns:xlink="http://www.w3.org/1999/xlink" xmlns:svgjs="http://svgjs.dev/svgjs" width="2560" height="1440" preserveAspectRatio="none" viewBox="0 0 2560 1440"><g mask="url(&quot;#SvgjsMask1090&quot;)" fill="none"><rect width="2560" height="1440" x="0" y="0" fill="rgba(239, 218, 215, 1)"></rect><path d="M 0,570 C 102.4,519.6 307.2,338.6 512,318 C 716.8,297.4 819.2,526.8 1024,467 C 1228.8,407.2 1331.2,34 1536,19 C 1740.8,4 1843.2,326.4 2048,392 C 2252.8,457.6 2457.6,356 2560,347L2560 1440L0 1440z" fill="rgba(247, 237, 235, 1)"></path><path d="M 0,1431 C 102.4,1347.4 307.2,1019.2 512,1013 C 716.8,1006.8 819.2,1443.2 1024,1400 C 1228.8,1356.8 1331.2,807.8 1536,797 C 1740.8,786.2 1843.2,1314.2 2048,1346 C 2252.8,1377.8 2457.6,1034 2560,956L2560 1440L0 1440z" fill="rgba(225, 212, 205, 1)"></path></g><defs><mask id="SvgjsMask1090"><rect width="2560" height="1440" fill="#ffffff"></rect></mask></defs></svg>